<svg width="24" height="24" viewBox="0 0 24 24" fill="none" xmlns="http://www.w3.org/2000/svg">
<path d="M22.5635 13.8506C23.4601 14.924 24 16.3045 24 17.8096C23.9999 21.2263 21.2204 24 17.7969 24C16.293 24 14.9153 23.4623 13.8408 22.5723L22.5635 13.8506ZM17.7969 11.6201C19.3516 11.6201 20.7723 12.1933 21.8613 13.1377L13.124 21.875C12.7664 21.4661 12.4598 21.0113 12.2188 20.5186C11.8184 19.7001 11.5938 18.7812 11.5938 17.8096C11.5938 15.4407 12.9303 13.3802 14.8906 12.3398L14.8916 12.3408C15.758 11.8812 16.7481 11.6201 17.7969 11.6201ZM4.27539 11.0391C5.55183 12.1415 7.21568 12.8105 9.03418 12.8105C10.2902 12.8105 11.4732 12.4919 12.5049 11.9316C10.8915 13.3791 9.87701 15.4781 9.87695 17.8115C9.87695 18.9462 10.1172 20.0268 10.5498 21.0029H3.33203C2.44862 21.0028 1.60031 20.6518 0.975586 20.0283C0.356306 19.4101 0.0064577 18.5723 0 17.6992V17.6973C0 17.6909 0.00095752 17.6749 0.000976562 17.6621C0.000695458 17.6534 0.000153156 17.6451 0 17.6387V17.6357C0.0151035 14.7042 1.76425 12.1823 4.27539 11.0391ZM9.03418 0C12.1013 0 14.5927 2.48564 14.5928 5.54785C14.5928 8.60891 12.1015 11.0957 9.03418 11.0957C5.96593 11.0957 3.47559 8.61012 3.47559 5.54785C3.47568 2.48581 5.96586 4.84172e-05 9.03418 0Z" fill="#4E9D4B"/>
</svg>
