<svg width="48" height="48" viewBox="0 0 48 48" fill="none" xmlns="http://www.w3.org/2000/svg">
<path d="M45.5674 28.2598C47.0954 30.3175 47.9999 32.8633 48 35.6182C48 42.4518 42.4411 48 35.5938 48C32.8419 48 30.298 47.1036 28.2393 45.5879L45.5674 28.2598ZM35.5938 23.2393C38.9582 23.2393 42.0094 24.581 44.2451 26.7539L26.7266 44.2725C25.801 43.3282 25.0246 42.2378 24.4375 41.0381C23.6367 39.401 23.1876 37.5626 23.1875 35.6191C23.1875 30.8813 25.8607 26.7605 29.7812 24.6797L29.7842 24.6816C31.5168 23.7624 33.4963 23.2393 35.5938 23.2393ZM8.55078 22.0781C11.1037 24.2829 14.4314 25.6201 18.0684 25.6201C20.5805 25.6201 22.9473 24.984 25.0107 23.8633C21.7836 26.7582 19.754 30.9559 19.7539 35.623C19.7539 37.8923 20.2353 40.0526 21.1006 42.0049H6.66504C4.89814 42.0049 3.20174 41.3046 1.95215 40.0576C0.713235 38.8212 0.0129174 37.1449 0 35.3984V35.3945C0 35.3817 0.00195312 35.349 0.00195312 35.3232C-0.000184591 35.257 0 35.2122 0 35.2764V35.2715C0.0302071 29.4085 3.52851 24.3645 8.55078 22.0781ZM18.0684 0C24.2026 0 29.1844 4.97128 29.1846 11.0957C29.1846 17.2178 24.203 22.1924 18.0684 22.1924C11.9319 22.1923 6.9502 17.2202 6.9502 11.0957C6.95039 4.97162 11.9317 9.89967e-05 18.0684 0Z" fill="white"/>
</svg>
