<svg width="71" height="100" viewBox="0 0 71 100" fill="none" xmlns="http://www.w3.org/2000/svg">
<path fill-rule="evenodd" clip-rule="evenodd" d="M50.498 92.0753C50.9226 92.488 50.9226 93.155 50.498 93.5676C50.0735 93.9803 49.3873 93.9803 48.9628 93.5676L48.1694 92.7965V93.8886C48.1694 94.4722 47.6848 94.9432 47.0845 94.9432C46.4841 94.9432 45.9995 94.4722 45.9995 93.8886V92.7965L45.2061 93.5676C44.7816 93.9803 44.0954 93.9803 43.6709 93.5676C43.2463 93.155 43.2463 92.488 43.6709 92.0753L44.4643 91.3042H43.3407C42.7404 91.3042 42.2558 90.8331 42.2558 90.2495C42.2558 89.6659 42.7404 89.1949 43.3407 89.1949H44.4643L43.6709 88.4237C43.2463 88.011 43.2463 87.344 43.6709 86.9314C44.0955 86.5187 44.7816 86.5187 45.2061 86.9314L45.9995 87.7026V86.6146C45.9995 86.031 46.4841 85.56 47.0845 85.56C47.6848 85.56 48.1694 86.031 48.1694 86.6146V87.7067L48.9628 86.9355C49.3874 86.5229 50.0735 86.5229 50.498 86.9355C50.9226 87.3482 50.9226 88.0152 50.498 88.4278L49.7047 89.199H50.8239C51.4243 89.199 51.9089 89.6701 51.9089 90.2537C51.9089 90.8373 51.4243 91.3083 50.8239 91.3083H49.7047L50.498 92.0753ZM49.8976 32.1357V18.9756C49.8976 15.4031 48.431 12.0142 45.8365 9.49218C43.242 6.97019 39.7555 5.54458 36.0803 5.54458H34.9267C31.2515 5.54458 27.7651 6.97019 25.1705 9.49218C22.576 12.0142 21.1094 15.4032 21.1094 18.9756V32.14C21.0494 32.165 20.9893 32.1942 20.9293 32.2192L20.8693 32.2442L20.865 32.2483L20.8006 32.2775C18.9094 33.1363 17.104 34.1659 15.4057 35.3373L15.4015 18.9757C15.4015 13.9317 17.4685 9.13789 21.1351 5.5734C24.8017 2.00934 29.7334 0 34.9229 0H36.0765C41.2656 0 46.1973 2.00923 49.8643 5.5734C53.5309 9.13747 55.598 13.9313 55.598 18.9757V35.3373C53.8998 34.1617 52.0944 33.1404 50.2031 32.2775L50.1388 32.2442L50.1345 32.24L50.0745 32.215C50.0144 32.19 49.9534 32.1649 49.8976 32.1357ZM38.9148 92.0753C39.3394 92.488 39.3394 93.155 38.9148 93.5676C38.4903 93.9803 37.8042 93.9803 37.3796 93.5676L36.5863 92.7965V93.8886C36.5863 94.4722 36.1017 94.9432 35.5013 94.9432C34.9009 94.9432 34.4163 94.4722 34.4163 93.8886V92.7965L33.6229 93.5676C33.1984 93.9803 32.5123 93.9803 32.0877 93.5676C31.6632 93.155 31.6632 92.488 32.0877 92.0753L32.8811 91.3042H31.7618C31.1615 91.3042 30.6769 90.8331 30.6769 90.2495C30.6769 89.6659 31.1615 89.1949 31.7618 89.1949H32.8811L32.0877 88.4237C31.6632 88.011 31.6632 87.344 32.0877 86.9314C32.5123 86.5187 33.1984 86.5187 33.6229 86.9314L34.4163 87.7026V86.6146C34.4163 86.031 34.9009 85.56 35.5013 85.56C36.1017 85.56 36.5863 86.031 36.5863 86.6146V87.7067L37.3796 86.9355C37.8042 86.5229 38.4903 86.5229 38.9148 86.9355C39.3394 87.3482 39.3394 88.0152 38.9148 88.4278L38.1215 89.199H39.2407C39.8411 89.199 40.3257 89.6701 40.3257 90.2537C40.3257 90.8373 39.8411 91.3083 39.2407 91.3083H38.1215L38.9148 92.0753ZM27.3315 92.0753C27.7561 92.488 27.7561 93.155 27.3315 93.5676C26.907 93.9803 26.2208 93.9803 25.7963 93.5676L25.0029 92.7965V93.8886C25.0029 94.4722 24.5183 94.9432 23.918 94.9432C23.3176 94.9432 22.833 94.4722 22.833 93.8886V92.7965L22.0396 93.5676C21.6151 93.9803 20.9289 93.9803 20.5044 93.5676C20.0799 93.155 20.0799 92.488 20.5044 92.0753L21.2978 91.3042L20.1785 91.3083C19.5781 91.3083 19.0936 90.8373 19.0936 90.2537C19.0936 89.6701 19.5781 89.199 20.1785 89.199H21.2978L20.5044 88.4278C20.0799 88.0152 20.0799 87.3482 20.5044 86.9355C20.929 86.5229 21.6151 86.5229 22.0396 86.9355L22.833 87.7067V86.6146C22.833 86.031 23.3176 85.56 23.918 85.56C24.5183 85.56 25.0029 86.031 25.0029 86.6146V87.7067L25.7963 86.9355C26.2209 86.5229 26.907 86.5229 27.3315 86.9355C27.7561 87.3482 27.7561 88.0152 27.3315 88.4278L26.5382 89.199H27.6617C28.2621 89.199 28.7467 89.6701 28.7467 90.2537C28.7467 90.8373 28.2621 91.3083 27.6617 91.3083H26.5382L27.3315 92.0753ZM15.7482 92.0753C16.1728 92.488 16.1728 93.155 15.7482 93.5676C15.3237 93.9803 14.6375 93.9803 14.213 93.5676L13.4196 92.7965V93.8886C13.4196 94.4722 12.935 94.9432 12.3347 94.9432C11.7343 94.9432 11.2497 94.4722 11.2497 93.8886V92.7965L10.4563 93.5676C10.0318 93.9803 9.34563 93.9803 8.9211 93.5676C8.49654 93.155 8.49654 92.488 8.9211 92.0753L9.71446 91.3042H8.59521C7.99483 91.3042 7.51024 90.8331 7.51024 90.2495C7.51024 89.6659 7.99484 89.1949 8.59521 89.1949H9.71446L8.9211 88.4237C8.49654 88.011 8.49654 87.344 8.9211 86.9314C9.34565 86.5187 10.0318 86.5187 10.4563 86.9314L11.2497 87.7026V86.6146C11.2497 86.031 11.7343 85.56 12.3347 85.56C12.935 85.56 13.4196 86.031 13.4196 86.6146V87.7067L14.213 86.9355C14.6376 86.5229 15.3237 86.5229 15.7482 86.9355C16.1728 87.3482 16.1728 88.0152 15.7482 88.4278L14.9548 89.199H16.0741C16.6745 89.199 17.1591 89.6701 17.1591 90.2537C17.1591 90.8373 16.6745 91.3083 16.0741 91.3083H14.9548L15.7482 92.0753ZM39.7207 67.1478V66.0973H39.7249C39.7249 65.8222 39.8364 65.5512 40.0509 65.3428C40.677 64.7509 41.1744 64.0422 41.5132 63.2669C41.8434 62.5082 42.0192 61.6703 42.0192 60.8033C42.0192 59.0525 41.2902 57.4684 40.1109 56.3221C38.9315 55.1758 37.3019 54.4671 35.5008 54.4671C33.704 54.4671 32.0701 55.1757 30.8908 56.3221C29.7115 57.4685 28.9824 59.0525 28.9824 60.8033C28.9824 61.6745 29.1625 62.5083 29.4884 63.2669C29.8186 64.0214 30.2946 64.7093 30.895 65.2928C31.1308 65.4845 31.2766 65.7763 31.2766 66.0973V67.1478C31.2766 68.2775 31.7484 69.3029 32.516 70.0449C33.2793 70.7869 34.3342 71.2496 35.4964 71.2496C36.6586 71.2496 37.7135 70.791 38.4768 70.0449C39.2487 69.3029 39.7207 68.2775 39.7207 67.1478ZM41.8907 66.5225V67.1478C41.8907 68.8611 41.1745 70.4118 40.0166 71.5373C38.8587 72.6628 37.2635 73.3589 35.5009 73.3589C33.7383 73.3589 32.143 72.6628 30.9851 71.5373C29.8272 70.4118 29.1111 68.8611 29.1111 67.1478V66.5225C28.4336 65.8055 27.8889 64.9802 27.4986 64.0839C27.0526 63.0584 26.8125 61.9454 26.8125 60.8032C26.8125 58.473 27.7859 56.3595 29.3598 54.8297C30.9336 53.2998 33.1036 52.3535 35.5052 52.3535C37.9024 52.3535 40.0767 53.2998 41.6506 54.8297C43.2244 56.3595 44.1979 58.4688 44.1979 60.8032C44.1979 61.9454 43.9577 63.0584 43.5117 64.0839C43.1129 64.9801 42.5683 65.8055 41.8907 66.5225ZM36.0154 66.4141C36.0154 66.5517 35.9554 66.6768 35.8654 66.7685C35.771 66.8602 35.6424 66.9185 35.5008 66.9185C35.3593 66.9185 35.2307 66.8602 35.1363 66.7726C35.042 66.6809 34.9862 66.5559 34.9862 66.4183V64.1923C34.9862 63.763 34.7203 63.3878 34.3387 63.2252C33.9656 63.0251 33.6525 62.7333 33.4338 62.3832C33.2108 62.0289 33.0822 61.6078 33.0822 61.1577C33.0822 60.5074 33.3523 59.9196 33.7898 59.4944C34.2272 59.0692 34.8318 58.8066 35.5008 58.8066C36.1698 58.8066 36.7746 59.0692 37.2119 59.4944C37.6494 59.9196 37.9195 60.5074 37.9195 61.1577C37.9195 61.612 37.7909 62.0289 37.5679 62.3832C37.3363 62.7542 37.0018 63.0543 36.603 63.2544C36.2299 63.442 36.0155 63.8088 36.0155 64.1923H36.0112L36.0197 66.4141L36.0154 66.4141ZM38.1854 64.7717V66.4141C38.1854 67.1353 37.8852 67.7856 37.3964 68.2608C36.9118 68.7319 36.2385 69.0278 35.4966 69.0278C34.7547 69.0278 34.0856 68.736 33.5967 68.2608C33.1079 67.7898 32.8077 67.1353 32.8077 66.4141V64.7717C32.3145 64.4257 31.8942 63.9838 31.5769 63.4753C31.1523 62.7958 30.9036 61.9997 30.9036 61.1534C30.9036 59.9196 31.4182 58.8065 32.2502 57.9978C33.0822 57.1892 34.2315 56.6889 35.4965 56.6889C36.7658 56.6889 37.9109 57.1891 38.7428 57.9978C39.5748 58.8065 40.0894 59.9237 40.0894 61.1534C40.0894 61.9996 39.845 62.7959 39.4162 63.4753C39.0988 63.9839 38.6829 64.4257 38.1854 64.7717ZM54.4126 44.4745C59.2543 49.1809 62.2476 55.6796 62.2476 62.8583C62.2476 65.8138 61.7415 68.6484 60.8109 71.2912C59.9061 73.8633 58.5938 76.2559 56.9471 78.3944H14.0545C12.412 76.2518 11.0955 73.8632 10.1906 71.2912C9.26002 68.6483 8.75398 65.8138 8.75398 62.8583C8.75398 55.68 11.7474 49.1817 16.5889 44.4745C21.4306 39.7682 28.1163 36.8586 35.5014 36.8586C42.8866 36.8586 49.5758 39.7683 54.4139 44.4745H54.4126ZM49.2836 34.1865C49.2407 34.1699 49.2021 34.1532 49.1593 34.1324C45.0037 32.2607 40.3765 31.2185 35.501 31.2185C30.6208 31.2185 25.9935 32.2606 21.8428 34.1324C21.8042 34.1532 21.7613 34.1699 21.7184 34.1865C18.2663 35.7581 15.1442 37.8966 12.4854 40.4852C6.59304 46.2128 2.95216 54.1202 2.95216 62.858C2.95216 65.7426 3.35098 68.5355 4.09293 71.1867C4.80481 73.7337 5.83827 76.1473 7.14196 78.3942H11.4047C10.0538 76.4141 8.95164 74.259 8.1411 71.9663C7.13332 69.1067 6.58436 66.0428 6.58436 62.858C6.58436 55.0962 9.82211 48.0683 15.054 42.9823C20.2859 37.8963 27.5167 34.7495 35.5013 34.7495C43.4859 34.7495 50.7162 37.8967 55.9485 42.9823C61.1809 48.0679 64.4182 55.0966 64.4182 62.858C64.4182 66.0428 63.8735 69.1067 62.8614 71.9663C62.0509 74.259 60.9488 76.4142 59.5979 78.3942H63.8606C65.1642 76.1515 66.1935 73.7337 66.9096 71.1867C67.6515 68.5314 68.0504 65.7426 68.0504 62.858C68.0504 54.1207 64.4052 46.2083 58.5172 40.4852C55.854 37.8965 52.7359 35.7539 49.2836 34.1865ZM71 97.0278V83.476C71 82.6548 70.6569 81.9129 70.1037 81.375C69.5505 80.8373 68.7872 80.5038 67.9423 80.5038H3.05772C2.21719 80.5038 1.4496 80.8373 0.896288 81.375C0.343075 81.9128 0 82.6548 0 83.476V97.0278C0 97.8448 0.343075 98.5909 0.896288 99.1288C1.4495 99.6665 2.21282 100 3.05772 100H67.9456C68.7904 100 69.5537 99.6665 70.107 99.1288C70.6602 98.591 71 97.8449 71 97.0278ZM67.0975 84.3009H3.90361V96.2018H67.0942V84.3009H67.0975ZM68.8772 82.5668C68.6414 82.3376 68.3069 82.1917 67.9423 82.1917H3.05448C2.69426 82.1917 2.36404 82.3376 2.12388 82.5668C1.88802 82.7961 1.73793 83.1212 1.73793 83.4756V97.0273C1.73793 97.3816 1.88802 97.7026 2.12388 97.936C2.16677 97.9777 2.21394 98.0152 2.25682 98.0486C2.47981 98.2153 2.75857 98.3154 3.05447 98.3154H67.9423C68.3068 98.3154 68.637 98.1695 68.8772 97.9402C69.1131 97.7109 69.2632 97.3858 69.2632 97.0315L69.2674 83.4755C69.2674 83.1211 69.1174 82.8003 68.8772 82.5668ZM57.5815 86.6145C57.5815 86.0309 58.0661 85.5599 58.6665 85.5599C59.2669 85.5599 59.7515 86.0309 59.7515 86.6145V87.7066L60.5448 86.9355C60.9694 86.5228 61.6555 86.5228 62.0801 86.9355C62.5046 87.3481 62.5046 88.0151 62.0801 88.4278L61.2867 89.1989H62.4102C63.0106 89.1989 63.4952 89.67 63.4952 90.2536C63.4952 90.8372 63.0106 91.3082 62.4102 91.3082H61.2867L62.0801 92.0794C62.5046 92.4921 62.5046 93.159 62.0801 93.5717C61.6555 93.9844 60.9694 93.9844 60.5448 93.5717L59.7515 92.8005V93.8926C59.7515 94.4762 59.2669 94.9473 58.6665 94.9473C58.0661 94.9473 57.5815 94.4762 57.5815 93.8926V92.8005L56.7882 93.5717C56.3636 93.9844 55.6775 93.9844 55.2529 93.5717C54.8284 93.159 54.8284 92.4921 55.2529 92.0794L56.0463 91.3082H54.9228C54.3224 91.3082 53.8378 90.8372 53.8378 90.2536C53.8378 89.67 54.3224 89.1989 54.9228 89.1989H56.0463L55.2529 88.4278C54.8284 88.0151 54.8284 87.3481 55.2529 86.9355C55.6775 86.5228 56.3636 86.5228 56.7882 86.9355L57.5815 87.7066V86.6145Z" fill="#4E9D4B"/>
</svg>
