<svg width="107" height="107" viewBox="0 0 107 107" fill="none" xmlns="http://www.w3.org/2000/svg">
<circle cx="53.5" cy="53.5" r="53.5" fill="#4E9D4B"/>
<path fill-rule="evenodd" clip-rule="evenodd" d="M59.7838 53.6814C61.5166 52.7621 63.4963 52.2393 65.5939 52.2393C72.4412 52.2393 78.0001 57.787 78.0001 64.6184C78.0001 71.4521 72.4412 76.9998 65.5939 76.9998C60.694 76.9998 56.4533 74.1584 54.4371 70.0378C53.6363 68.4007 53.1875 66.5621 53.1875 64.6185C53.1875 59.8806 55.8607 55.7601 59.7814 53.6793L59.7838 53.6814Z" fill="white"/>
<path fill-rule="evenodd" clip-rule="evenodd" d="M48.0685 29C54.2029 29 59.1846 33.9715 59.1846 40.0961C59.1846 46.2182 54.2032 51.1921 48.0685 51.1921C41.932 51.1921 36.9503 46.2207 36.9503 40.0961C36.9503 33.9718 41.9317 29 48.0685 29ZM30.0002 64.2719C30.0302 58.4087 33.528 53.3645 38.5504 51.078C41.1033 53.283 44.4313 54.6202 48.0685 54.6202C50.5807 54.6202 52.9469 53.9837 55.0104 52.863C51.7832 55.7581 49.7541 59.9561 49.7541 64.6234C49.7541 66.8927 50.2351 69.0528 51.1004 71.005H36.6648C34.8977 71.005 33.2014 70.3043 31.9518 69.0572C30.7129 67.8207 30.0129 66.145 30 64.3985V64.3942C30 64.3814 30.0021 64.3492 30.0021 64.3235C30 64.2571 30 64.2121 30 64.2764L30.0002 64.2719ZM59.7838 53.6816C61.5165 52.7623 63.4962 52.2394 65.5938 52.2394C72.4411 52.2394 78 57.7872 78 64.6186C78 71.4522 72.4411 77 65.5938 77C60.694 77 56.4533 74.1585 54.4371 70.038C53.6362 68.4008 53.1874 66.5623 53.1874 64.6187C53.1874 59.8808 55.8607 55.7602 59.7813 53.6795L59.7838 53.6816Z" fill="white"/>
<path d="M61.6111 62.6V68.6C61.6111 69.9255 62.606 71 63.8333 71H67.1667C68.394 71 69.3889 69.9255 69.3889 68.6V62.6M66.6111 64.4V68M64.3889 64.4L64.3889 68M67.7222 60.8L66.941 59.5344C66.7349 59.2005 66.388 59 66.0165 59H64.9835C64.612 59 64.2651 59.2005 64.059 59.5344L63.2778 60.8M67.7222 60.8H63.2778M67.7222 60.8H70.5M63.2778 60.8H60.5" stroke="#4E9D4B" stroke-width="1.4" stroke-linecap="round" stroke-linejoin="round"/>
</svg>
