<svg width="48" height="48" viewBox="0 0 48 48" fill="none" xmlns="http://www.w3.org/2000/svg">
<path fill-rule="evenodd" clip-rule="evenodd" d="M18.0685 0C24.2029 0 29.1846 4.97148 29.1846 11.0961C29.1846 17.2182 24.2032 22.1921 18.0685 22.1921C11.932 22.1921 6.95026 17.2207 6.95026 11.0961C6.95026 4.97175 11.9317 0 18.0685 0ZM0.000164864 35.2719C0.0302255 29.4087 3.52798 24.3645 8.55036 22.078C11.1033 24.283 14.4313 25.6202 18.0685 25.6202C20.5807 25.6202 22.9469 24.9837 25.0104 23.863C21.7832 26.7581 19.7541 30.9561 19.7541 35.6234C19.7541 37.8927 20.2351 40.0528 21.1004 42.005H6.66481C4.89772 42.005 3.20142 41.3043 1.95179 40.0572C0.712874 38.8207 0.0129174 37.145 0 35.3985V35.3942C0 35.3814 0.00214691 35.3492 0.00214691 35.3235C-1.24797e-07 35.2571 0 35.2121 0 35.2764L0.000164864 35.2719ZM29.7838 24.6816C31.5165 23.7623 33.4962 23.2394 35.5938 23.2394C42.4411 23.2394 48 28.7872 48 35.6186C48 42.4522 42.4411 48 35.5938 48C30.694 48 26.4533 45.1585 24.4371 41.038C23.6362 39.4008 23.1874 37.5623 23.1874 35.6187C23.1874 30.8808 25.8607 26.7602 29.7813 24.6795L29.7838 24.6816Z" fill="white"/>
<path d="M31.6111 33.6V39.6C31.6111 40.9255 32.606 42 33.8333 42H37.1667C38.394 42 39.3889 40.9255 39.3889 39.6V33.6M36.6111 35.4V39M34.3889 35.4L34.3889 39M37.7222 31.8L36.941 30.5344C36.7349 30.2005 36.388 30 36.0165 30H34.9835C34.612 30 34.2651 30.2005 34.059 30.5344L33.2778 31.8M37.7222 31.8H33.2778M37.7222 31.8H40.5M33.2778 31.8H30.5" stroke="#4E9D4B" stroke-width="1.4" stroke-linecap="round" stroke-linejoin="round"/>
</svg>
