<svg width="24" height="24" viewBox="0 0 24 24" fill="none" xmlns="http://www.w3.org/2000/svg">
<path fill-rule="evenodd" clip-rule="evenodd" d="M9.03427 0C12.1015 0 14.5923 2.48574 14.5923 5.54803C14.5923 8.60909 12.1016 11.0961 9.03427 11.0961C5.96598 11.0961 3.47513 8.61033 3.47513 5.54803C3.47513 2.48588 5.96584 0 9.03427 0ZM8.24322e-05 17.6359C0.0151128 14.7043 1.76399 12.1823 4.27518 11.039C5.55166 12.1415 7.21567 12.8101 9.03427 12.8101C10.2904 12.8101 11.4735 12.4919 12.5052 11.9315C10.8916 13.379 9.87706 15.4781 9.87706 17.8117C9.87706 18.9464 10.1175 20.0264 10.5502 21.0025H3.33241C2.44886 21.0025 1.60071 20.6522 0.975893 20.0286C0.356437 19.4104 0.00645868 18.5725 0 17.6993V17.6971C0 17.6907 0.00107345 17.6746 0.00107345 17.6618C-6.23986e-08 17.6285 0 17.606 0 17.6382L8.24322e-05 17.6359ZM14.8919 12.3408C15.7583 11.8811 16.7481 11.6197 17.7969 11.6197C21.2206 11.6197 24 14.3936 24 17.8093C24 21.2261 21.2206 24 17.7969 24C15.347 24 13.2266 22.5793 12.2185 20.519C11.8181 19.7004 11.5937 18.7811 11.5937 17.8093C11.5937 15.4404 12.9303 13.3801 14.8907 12.3397L14.8919 12.3408Z" fill="#4E9D4B"/>
<path d="M15.8056 16.8V19.8C15.8056 20.4627 16.303 21 16.9167 21H18.5833C19.197 21 19.6944 20.4627 19.6944 19.8V16.8M18.3056 17.7V19.5M17.1944 17.7L17.1944 19.5M18.8611 15.9L18.4705 15.2672C18.3674 15.1003 18.194 15 18.0082 15H17.4918C17.306 15 17.1326 15.1003 17.0295 15.2672L16.6389 15.9M18.8611 15.9H16.6389M18.8611 15.9H20.25M16.6389 15.9H15.25" stroke="white" stroke-width="0.7" stroke-linecap="round" stroke-linejoin="round"/>
</svg>
