<svg width="82" height="82" viewBox="0 0 82 82" fill="none" xmlns="http://www.w3.org/2000/svg">
<path d="M7.32153 23.6191L0.863948 26.4892C0.336796 26.7235 0 27.236 0 27.8217V37.2814L7.32155 40.5322L7.32153 23.6191Z" fill="#4E9D4B"/>
<path d="M81.1395 26.4892L74.6819 23.6191V40.532L82.0034 37.2812V27.8215C82.0034 27.2358 81.6666 26.7235 81.1395 26.4892Z" fill="#4E9D4B"/>
<path d="M47.546 55.8032C43.435 57.6408 38.5661 57.6408 34.4548 55.8032C34.4365 55.8032 9.0672 44.502 9.04939 44.5132L0 40.4863V74.6776C0 78.7191 3.28005 81.9992 7.32155 81.9992H74.6798C78.7213 81.9992 82.0014 78.7191 82.0014 74.6776V40.4863C81.9867 40.4863 72.952 44.5242 72.9373 44.5132L47.546 55.8032ZM8.78605 64.4279H14.6433C16.5652 64.4609 16.5689 67.3235 14.6433 67.3565H8.78605C6.86412 67.3236 6.86047 64.4609 8.78605 64.4279ZM20.5005 74.6786H8.78605C6.86412 74.6456 6.86047 71.7829 8.78605 71.7499H20.5005C22.4225 71.7829 22.4261 74.6456 20.5005 74.6786Z" fill="#4E9D4B"/>
<path d="M46.3597 53.1248L68.8224 43.1384L71.751 41.8352V1.46431C71.751 0.658935 71.0921 0 70.2867 0H11.7143C10.9089 0 10.25 0.658935 10.25 1.46431V41.8352C10.7772 42.0988 34.1625 52.4514 35.6414 53.1252C39.0532 54.6334 42.9483 54.6334 46.3606 53.1252L46.3597 53.1248ZM55.409 18.8895C55.658 18.1134 56.478 17.7034 57.2541 17.9523L58.4256 18.3184V17.103C58.4256 16.2976 59.0699 15.6387 59.8899 15.6387C60.6953 15.6387 61.3542 16.2976 61.3542 17.103V18.3184L62.511 17.9523C63.2871 17.7034 64.1071 18.1134 64.3561 18.8895C64.605 19.6509 64.1804 20.4855 63.4189 20.7345L62.2621 21.1153L62.9796 22.0964C63.4482 22.7553 63.3018 23.6632 62.6428 24.1464C62.0095 24.6186 61.0687 24.4759 60.6074 23.8243L59.8899 22.8285L59.1724 23.8243C58.6892 24.4832 57.7703 24.615 57.1224 24.1464C56.4634 23.6632 56.317 22.7553 56.8002 22.0964L57.5177 21.1153L56.3463 20.7345C55.5848 20.4856 55.1601 19.651 55.409 18.8895ZM42.8305 18.8895C43.0794 18.1134 43.8994 17.7034 44.6756 17.9523L45.8324 18.3184V17.103C45.8324 16.2976 46.4913 15.6387 47.2967 15.6387C48.1021 15.6387 48.761 16.2976 48.761 17.103V18.3184L49.9179 17.9523C50.6939 17.7034 51.5139 18.1134 51.7629 18.8895C52.0119 19.6509 51.6019 20.4855 50.8258 20.7345L49.6689 21.1153L50.3865 22.0964C50.855 22.7553 50.7086 23.6632 50.0643 24.1464C49.4054 24.615 48.5011 24.4832 48.0143 23.8243L47.2968 22.8285L46.5793 23.8243C46.096 24.4832 45.1772 24.615 44.5292 24.1464C43.8703 23.6632 43.7385 22.7553 44.2071 22.0964L44.9246 21.1153L43.7678 20.7345C42.9917 20.4856 42.567 19.651 42.8305 18.8895ZM30.237 18.8895C30.4859 18.1134 31.3059 17.7034 32.082 17.9523L33.2389 18.3184V17.103C33.2389 16.2976 33.8978 15.6387 34.7032 15.6387C35.5086 15.6387 36.1675 16.2976 36.1675 17.103V18.3184L37.3243 17.9523C38.1004 17.7034 38.9204 18.1134 39.1694 18.8895C39.433 19.6509 39.0083 20.4855 38.2322 20.7345L37.0754 21.1153L37.7929 22.0964C38.2615 22.7553 38.1297 23.6632 37.4708 24.1464C36.8228 24.615 35.9039 24.4832 35.4207 23.8243L34.7032 22.8285L33.9857 23.8243C33.4988 24.4832 32.5946 24.615 31.9357 24.1464C31.2914 23.6632 31.145 22.7553 31.6135 22.0964L32.331 21.1153L31.1742 20.7345C30.3981 20.4856 29.9881 19.651 30.237 18.8895ZM17.6434 18.8895C17.8924 18.1134 18.7124 17.7034 19.4885 17.9523L20.6453 18.3184V17.103C20.6453 16.2976 21.3043 15.6387 22.1096 15.6387C22.9297 15.6387 23.574 16.2976 23.574 17.103V18.3184L24.7454 17.9523C25.5068 17.7034 26.3415 18.1134 26.5905 18.8895C26.8394 19.6509 26.4148 20.4855 25.6533 20.7345L24.4819 21.1153L25.1994 22.0964C25.6826 22.7553 25.5362 23.6632 24.8772 24.1464C24.2293 24.615 23.3104 24.4832 22.8272 23.8243L22.1097 22.8285L21.3922 23.8243C20.9309 24.4759 19.9901 24.6186 19.3568 24.1464C18.6978 23.6632 18.5514 22.7553 19.02 22.0964L19.7375 21.1153L18.5807 20.7345C17.8192 20.4856 17.3945 19.651 17.6434 18.8895ZM19.0345 27.3531H62.9639C64.8712 27.3861 64.9004 30.2451 62.9639 30.2817H19.0345C17.1272 30.2488 17.098 27.3898 19.0345 27.3531Z" fill="#4E9D4B"/>
</svg>
